<svg height="15" viewBox="0 0 15 15" width="15" xmlns="http://www.w3.org/2000/svg"><g fill="#fff"><path d="m3.32981.0298784c.18242-.0660455.38658-.02060262.52377.1165826l2.07866 2.078669c-.01189.01812-.02274.03723-.03243.05728l-3.72458 7.70602z"/><path d="m2.26182 11.9402 4.98094 2.9886c.13399.0804.29786.0935.44294.0354l5-2c.2087-.0834.3361-.296.3112-.5194l-1-9.00001c-.0206-.18576-.1431-.34451-.3176-.41153s-.3718-.03113-.5115.09304l-1.65503 1.47117z"/><path d="m8.9383 3.75601-1.02224-1.53336c-.09672-.14508-.26203-.22929-.43625-.22224s-.33218.10435-.41686.25677l-.30978.55762-2.98589 6.17769z"/></g></svg>
